<svg id="Capa_1" enable-background="new 0 0 510 510" height="512" viewBox="0 0 510 510" width="512" xmlns="http://www.w3.org/2000/svg" xmlns:xlink="http://www.w3.org/1999/xlink"><linearGradient id="lg1"><stop offset="0" stop-color="#bbec6c"/><stop offset="1" stop-color="#78a91f"/></linearGradient><linearGradient id="SVGID_1_" gradientUnits="userSpaceOnUse" x1="112.871" x2="424.875" xlink:href="#lg1" y1="175.129" y2="487.132"/><linearGradient id="lg2"><stop offset="0" stop-color="#026841" stop-opacity="0"/><stop offset=".3243" stop-color="#046842" stop-opacity=".324"/><stop offset=".5509" stop-color="#0e6546" stop-opacity=".551"/><stop offset=".7476" stop-color="#1d614c" stop-opacity=".748"/><stop offset=".9263" stop-color="#335c54" stop-opacity=".926"/><stop offset="1" stop-color="#3e5959"/></linearGradient><linearGradient id="SVGID_00000067949555591901036600000010679405603099068818_" gradientUnits="userSpaceOnUse" x1="248.51" x2="94.01" xlink:href="#lg2" y1="253.58" y2="198.08"/><linearGradient id="SVGID_00000102516031590264251690000004634684446738431149_" gradientUnits="userSpaceOnUse" x1="389.501" x2="463.501" xlink:href="#lg2" y1="314.216" y2="306.216"/><linearGradient id="SVGID_00000005964163191209891690000000835961061493267385_" gradientUnits="userSpaceOnUse" x1="461.534" x2="314.944" xlink:href="#lg2" y1="232.373" y2="189.191"/><linearGradient id="SVGID_00000083080584987272347390000009236924271993788071_" gradientUnits="userSpaceOnUse" x1="104.765" x2="176.476" xlink:href="#lg2" y1="152.235" y2="223.947"/><linearGradient id="SVGID_00000155139875368590064830000011794602317942382235_" gradientUnits="userSpaceOnUse" x1="312.834" x2="393.479" xlink:href="#lg2" y1="149.5" y2="230.145"/><linearGradient id="lg3"><stop offset="0" stop-color="#fef0ae"/><stop offset="1" stop-color="#fac600"/></linearGradient><linearGradient id="SVGID_00000053537751689115105280000012924699306679417230_" gradientUnits="userSpaceOnUse" x1="142.333" x2="373.333" xlink:href="#lg3" y1="30.51" y2="248.51"/><linearGradient id="lg4"><stop offset="0" stop-color="#fea613" stop-opacity="0"/><stop offset=".2032" stop-color="#fda215" stop-opacity=".203"/><stop offset=".4052" stop-color="#fb961b" stop-opacity=".405"/><stop offset=".6066" stop-color="#f68225" stop-opacity=".607"/><stop offset=".8066" stop-color="#f06633" stop-opacity=".807"/><stop offset="1" stop-color="#e94444"/></linearGradient><linearGradient id="SVGID_00000081617254545129216930000003282610177998709937_" gradientUnits="userSpaceOnUse" x1="353.961" x2="353.961" xlink:href="#lg4" y1="125" y2="221.047"/><linearGradient id="SVGID_00000077287625972342933200000013483696384106515585_" gradientUnits="userSpaceOnUse" x1="156.039" x2="156.039" xlink:href="#lg4" y1="125" y2="221.047"/><linearGradient id="SVGID_00000014602118345588025660000017439082248103847317_" gradientUnits="userSpaceOnUse" x1="329" x2="382" xlink:href="#lg4" y1="106.825" y2="106.825"/><linearGradient id="SVGID_00000124163866446844372800000013185694439579877764_" gradientUnits="userSpaceOnUse" x1="255" x2="255" xlink:href="#lg2" y1="456" y2="516.7"/><linearGradient id="SVGID_00000029757236457829133360000013750320513571708351_" gradientUnits="userSpaceOnUse" x1="320.57" x2="259.57" xlink:href="#lg2" y1="547.527" y2="391.527"/><linearGradient id="lg5"><stop offset="0" stop-color="#eaf9fa"/><stop offset="1" stop-color="#b3dafe"/></linearGradient><linearGradient id="SVGID_00000025436966247848674940000001689619040950431906_" gradientUnits="userSpaceOnUse" x1="180.316" x2="180.316" xlink:href="#lg5" y1="278.042" y2="293.641"/><linearGradient id="SVGID_00000134967793222837164400000007187320677070330551_" gradientUnits="userSpaceOnUse" x1="329.684" x2="329.684" xlink:href="#lg5" y1="278.042" y2="293.641"/><linearGradient id="lg6"><stop offset="0" stop-color="#537983"/><stop offset="1" stop-color="#384949"/></linearGradient><linearGradient id="SVGID_00000136392640911316434580000014686124221431141044_" gradientUnits="userSpaceOnUse" x1="198.908" x2="308.863" xlink:href="#lg6" y1="284.11" y2="531.887"/><linearGradient id="SVGID_00000069366606080814697870000009841375258507880125_" gradientUnits="userSpaceOnUse" x1="255" x2="255" xlink:href="#lg6" y1="365" y2="332.496"/><linearGradient id="lg7"><stop offset="0" stop-color="#554e56" stop-opacity="0"/><stop offset=".269" stop-color="#524b52" stop-opacity=".269"/><stop offset=".521" stop-color="#464147" stop-opacity=".521"/><stop offset=".7654" stop-color="#343034" stop-opacity=".765"/><stop offset="1" stop-color="#1a1a1a"/></linearGradient><linearGradient id="SVGID_00000022531684996184005800000013525877541482492851_" gradientUnits="userSpaceOnUse" x1="255" x2="255" xlink:href="#lg7" y1="449.94" y2="487.997"/><linearGradient id="SVGID_00000117644614091757705420000010285456045995454601_" gradientUnits="userSpaceOnUse" x1="260.53" x2="228.988" xlink:href="#lg7" y1="455.071" y2="433.41"/><linearGradient id="SVGID_00000112605958371210983350000002342575756995838851_" gradientUnits="userSpaceOnUse" x1="147.896" x2="113.913" xlink:href="#lg7" y1="410.101" y2="376.118"/><linearGradient id="SVGID_00000016772318383009420190000014663653001702231199_" gradientUnits="userSpaceOnUse" x1="183.997" x2="135.006" xlink:href="#lg7" y1="446.204" y2="397.213"/><linearGradient id="SVGID_00000108289329890199940020000005769616468957403025_" gradientUnits="userSpaceOnUse" x1="350.372" x2="440.058" xlink:href="#lg7" y1="392.642" y2="441.285"/><linearGradient id="SVGID_00000165943138957744739820000000418443997220186279_" gradientUnits="userSpaceOnUse" x1="418.213" x2="335.659" xlink:href="#lg6" y1="439.751" y2="357.197"/><linearGradient id="SVGID_00000145779674344964062910000004585085571965884603_" gradientUnits="userSpaceOnUse" x1="336.348" x2="352.04" xlink:href="#lg3" y1="388.988" y2="404.68"/><linearGradient id="SVGID_00000057138750431801179330000002518240776418633661_" gradientUnits="userSpaceOnUse" x1="342.939" x2="342.939" xlink:href="#lg4" y1="395.822" y2="411.232"/><linearGradient id="SVGID_00000111192058580958035860000007386614459089395878_" gradientUnits="userSpaceOnUse" x1="345.699" x2="354.821" xlink:href="#lg4" y1="398.339" y2="407.461"/><linearGradient id="SVGID_00000038390729564108198710000015627048949161752471_" gradientUnits="userSpaceOnUse" x1="398.584" x2="414.276" y1="388.988" y2="404.68"><stop offset="0" stop-color="#fe646f"/><stop offset="1" stop-color="#c41926"/></linearGradient><linearGradient id="lg8"><stop offset="0" stop-color="#a72b2b" stop-opacity="0"/><stop offset=".1996" stop-color="#a32b2a" stop-opacity=".2"/><stop offset=".3982" stop-color="#972926" stop-opacity=".398"/><stop offset=".5966" stop-color="#832820" stop-opacity=".597"/><stop offset=".7949" stop-color="#672517" stop-opacity=".795"/><stop offset=".9914" stop-color="#44210c" stop-opacity=".991"/><stop offset="1" stop-color="#42210b"/></linearGradient><linearGradient id="SVGID_00000029738951007555533950000006695898681673407402_" gradientUnits="userSpaceOnUse" x1="405.175" x2="405.175" xlink:href="#lg8" y1="395.822" y2="411.232"/><linearGradient id="SVGID_00000052073858506753103410000005432021304636766337_" gradientUnits="userSpaceOnUse" x1="407.935" x2="417.057" xlink:href="#lg8" y1="398.339" y2="407.461"/><linearGradient id="SVGID_00000100349022126239991780000003562851017900340668_" gradientUnits="userSpaceOnUse" x1="367.466" x2="383.158" xlink:href="#lg1" y1="357.87" y2="373.562"/><linearGradient id="SVGID_00000168814588161282562470000007542923716842704812_" gradientUnits="userSpaceOnUse" x1="374.057" x2="374.057" xlink:href="#lg2" y1="364.704" y2="380.114"/><linearGradient id="SVGID_00000013163547030960615270000015482435930988885433_" gradientUnits="userSpaceOnUse" x1="376.817" x2="385.939" xlink:href="#lg2" y1="367.221" y2="376.343"/><linearGradient id="SVGID_00000151520051096484496720000013990681987758974125_" gradientUnits="userSpaceOnUse" x1="367.466" x2="383.158" y1="420.106" y2="435.797"><stop offset="0" stop-color="#c8effe"/><stop offset="1" stop-color="#62dbfb"/></linearGradient><linearGradient id="lg9"><stop offset="0" stop-color="#07b2cd" stop-opacity="0"/><stop offset=".4553" stop-color="#05a5ce" stop-opacity=".455"/><stop offset="1" stop-color="#0290cf"/></linearGradient><linearGradient id="SVGID_00000096059268677013607820000017810852738856394414_" gradientUnits="userSpaceOnUse" x1="374.057" x2="374.057" xlink:href="#lg9" y1="426.94" y2="442.35"/><linearGradient id="SVGID_00000138541395643286638880000006668344357342035862_" gradientUnits="userSpaceOnUse" x1="376.817" x2="385.939" xlink:href="#lg9" y1="429.457" y2="438.579"/><linearGradient id="SVGID_00000168079906573992735520000003250354266217170090_" gradientUnits="userSpaceOnUse" x1="362.516" x2="304.752" xlink:href="#lg7" y1="471.349" y2="445.317"/><linearGradient id="SVGID_00000145776682406658442300000016504361233054463908_" gradientUnits="userSpaceOnUse" x1="200.708" x2="226.029" xlink:href="#lg5" y1="430.274" y2="455.595"/><linearGradient id="lg10"><stop offset="0" stop-color="#b3dafe" stop-opacity="0"/><stop offset=".2438" stop-color="#acd5fa" stop-opacity=".244"/><stop offset=".589" stop-color="#9ac5f0" stop-opacity=".589"/><stop offset=".9932" stop-color="#7cacdf" stop-opacity=".993"/><stop offset="1" stop-color="#7bacdf"/></linearGradient><linearGradient id="SVGID_00000127734149998917847420000002492057543087223732_" gradientUnits="userSpaceOnUse" x1="211.344" x2="211.344" xlink:href="#lg10" y1="441.302" y2="466.168"/><linearGradient id="SVGID_00000013178115210694119470000007571006484217536700_" gradientUnits="userSpaceOnUse" x1="215.797" x2="230.516" xlink:href="#lg10" y1="445.363" y2="460.083"/><linearGradient id="SVGID_00000011721705395915115540000014879270323400603285_" gradientUnits="userSpaceOnUse" x1="288.02" x2="313.341" xlink:href="#lg5" y1="430.274" y2="455.595"/><linearGradient id="SVGID_00000029005724872390347740000012576063787876212157_" gradientUnits="userSpaceOnUse" x1="298.656" x2="298.656" xlink:href="#lg10" y1="441.302" y2="466.168"/><linearGradient id="SVGID_00000150099772060147037760000009126399546244323982_" gradientUnits="userSpaceOnUse" x1="303.109" x2="317.829" xlink:href="#lg10" y1="445.363" y2="460.083"/><linearGradient id="SVGID_00000077289602453930366020000013808305480684573851_" gradientUnits="userSpaceOnUse" x1="109.052" x2="142.909" xlink:href="#lg5" y1="371.286" y2="405.142"/><linearGradient id="SVGID_00000098185630108275531290000000905926379101390260_" gradientUnits="userSpaceOnUse" x1="143.795" x2="123.829" xlink:href="#lg5" y1="383.666" y2="363.7"/><linearGradient id="SVGID_00000043449515792788958430000004520919687808034977_" gradientUnits="userSpaceOnUse" x1="143.664" x2="126.086" xlink:href="#lg5" y1="428.26" y2="410.681"/><linearGradient id="SVGID_00000134228778334759158210000015820209933005141914_" gradientUnits="userSpaceOnUse" x1="167.072" x2="146.075" xlink:href="#lg5" y1="406.942" y2="385.946"/><linearGradient id="SVGID_00000132807666679094194520000009799785399520373926_" gradientUnits="userSpaceOnUse" x1="121.338" x2="102.328" xlink:href="#lg5" y1="405.933" y2="386.924"/><linearGradient id="SVGID_00000117645565333107150480000014488616734067133580_" gradientUnits="userSpaceOnUse" x1="133.346" x2="133.346" xlink:href="#lg10" y1="425.682" y2="438.988"/><linearGradient id="SVGID_00000062892431451136619830000006839291556618448553_" gradientTransform="matrix(0 -1 1 0 329.573 -3328.009)" gradientUnits="userSpaceOnUse" x1="-3723.588" x2="-3723.588" xlink:href="#lg10" y1="-166.124" y2="-152.818"/><g><g><g><g><path d="m377.033 510h-244.066c-47.927 0-85.883-40.495-82.785-88.321l16.25-250.85c1.37-21.155 18.928-37.612 40.127-37.612h296.883c21.199 0 38.757 16.457 40.127 37.612l16.25 250.85c3.098 47.826-34.859 88.321-82.786 88.321z" fill="url(#SVGID_1_)"/><path d="m443.569 170.828c-1.37-21.155-18.928-37.612-40.127-37.612h-265.775v75.451l286.588 286.589c23.042-15.99 37.524-43.313 35.563-73.577z" fill="url(#SVGID_00000067949555591901036600000010679405603099068818_)"/><path d="m443.569 170.828c-1.37-21.155-18.928-37.612-40.127-37.612h-142.775v376.784h116.366c47.927 0 85.884-40.495 82.785-88.321z" fill="url(#SVGID_00000102516031590264251690000004634684446738431149_)"/><path d="m452.815 313.565-9.246-142.737c-1.37-21.155-18.928-37.612-40.127-37.612h-55.525v75.451z" fill="url(#SVGID_00000005964163191209891690000000835961061493267385_)"/><g><circle cx="149.597" cy="197.068" fill="url(#SVGID_00000083080584987272347390000009236924271993788071_)" r="28.269"/><circle cx="360.403" cy="197.068" fill="url(#SVGID_00000155139875368590064830000011794602317942382235_)" r="28.269"/><path d="m360.403 213.65c-10.036 0-18.173-8.136-18.173-18.173v-71.902c0-48.098-39.131-87.23-87.23-87.23s-87.23 39.131-87.23 87.23v71.902c0 10.036-8.136 18.173-18.173 18.173s-18.173-8.136-18.173-18.173v-71.902c.001-68.14 55.436-123.575 123.576-123.575s123.575 55.435 123.575 123.575v71.902c0 10.037-8.136 18.173-18.172 18.173z" fill="url(#SVGID_00000053537751689115105280000012924699306679417230_)"/></g></g></g><g><path d="m369.864 78h-40.517c8.166 13.272 12.883 28.882 12.883 45.575v71.902c0 10.036 8.136 18.173 18.173 18.173 10.036 0 18.173-8.136 18.173-18.173v-71.902c-.001-16.088-3.094-31.466-8.712-45.575z" fill="url(#SVGID_00000081617254545129216930000003282610177998709937_)"/><path d="m131.425 123.575v71.902c0 10.036 8.136 18.173 18.173 18.173 10.036 0 18.173-8.136 18.173-18.173v-71.902c0-16.693 4.717-32.304 12.883-45.575h-40.517c-5.619 14.109-8.712 29.487-8.712 45.575z" fill="url(#SVGID_00000077287625972342933200000013483696384106515585_)"/></g><path d="m255 0c-4.048 0-8.05.202-12 .584v36.591c3.924-.542 7.929-.829 12-.829 48.099 0 87.23 39.131 87.23 87.23v71.902c0 10.036 8.136 18.173 18.173 18.173 10.036 0 18.173-8.136 18.173-18.173v-71.902c-.001-68.141-55.436-123.576-123.576-123.576z" fill="url(#SVGID_00000014602118345588025660000017439082248103847317_)"/><path d="m50.181 421.679c-3.098 47.826 34.859 88.321 82.786 88.321h244.066c47.927 0 85.884-40.495 82.785-88.321l-8.184-126.345h-393.268z" fill="url(#SVGID_00000124163866446844372800000013185694439579877764_)"/></g><path d="m459.819 421.679-3.223-49.749-40.596-40.597-329 142.334 35.699 35.699c3.363.414 6.788.634 10.267.634h244.066c47.928 0 85.885-40.495 82.787-88.321z" fill="url(#SVGID_00000029757236457829133360000013750320513571708351_)"/><g><g><path d="m193.346 277.073h-26.059c-11.647 0-21.737 8.079-24.284 19.444l-4.813 21.476h84.253l-4.813-21.476c-2.547-11.365-12.637-19.444-24.284-19.444z" fill="url(#SVGID_00000025436966247848674940000001689619040950431906_)"/><path d="m366.997 296.517c-2.547-11.365-12.637-19.444-24.284-19.444h-26.059c-11.647 0-21.737 8.079-24.284 19.444l-4.813 21.476h84.253z" fill="url(#SVGID_00000134967793222837164400000007187320677070330551_)"/></g><path d="m446.609 394.489 1.356 9.343c7.027 48.41-30.514 91.793-79.431 91.793-23.862 0-46.487-10.617-61.736-28.972-26.927-32.41-76.668-32.41-103.595 0-15.249 18.354-37.874 28.972-61.736 28.972-48.917 0-86.458-43.383-79.431-91.793l1.356-9.343c8.4-57.87 58.01-100.798 116.486-100.798h150.247c58.474-.001 108.084 42.928 116.484 100.798z" fill="url(#SVGID_00000136392640911316434580000014686124221431141044_)"/><path d="m280.75 365.5h-51.5c-9.251 0-16.75-7.499-16.75-16.75 0-9.251 7.499-16.75 16.75-16.75h51.5c9.251 0 16.75 7.499 16.75 16.75 0 9.251-7.499 16.75-16.75 16.75z" fill="url(#SVGID_00000069366606080814697870000009841375258507880125_)"/><path d="m63.391 394.489-1.356 9.343c-7.027 48.41 30.514 91.793 79.431 91.793 23.862 0 46.487-10.617 61.736-28.972 26.927-32.41 76.668-32.41 103.595 0 15.249 18.354 37.874 28.972 61.736 28.972 48.917 0 86.458-43.384 79.431-91.793l-1.356-9.343c-1.513-10.42-4.368-20.352-8.364-29.64h-366.489c-3.996 9.287-6.852 19.219-8.364 29.64z" fill="url(#SVGID_00000022531684996184005800000013525877541482492851_)"/><path d="m251.055 442.463-20.633-20.633v25.128c6.638-2.589 13.609-4.086 20.633-4.495z" fill="url(#SVGID_00000117644614091757705420000010285456045995454601_)"/><path d="m147.579 354.173-55.61 55.61 79.869 79.869c12.041-4.923 22.853-12.754 31.365-23 9.432-11.353 21.665-18.723 34.734-22.122z" fill="url(#SVGID_00000112605958371210983350000002342575756995838851_)"/><path d="m237.937 444.531c-6.536 1.695-12.86 4.393-18.735 8.079-5.868 3.686-11.279 8.368-15.999 14.046-8.513 10.246-19.321 18.074-31.367 22.999l-51.934-51.942 55.613-55.606z" fill="url(#SVGID_00000016772318383009420190000014663653001702231199_)"/><path d="m446.609 394.489c-8.4-57.87-58.01-100.798-116.486-100.798h-75.377v148.658c19.251-.072 38.528 8.028 52.051 24.304 15.249 18.354 37.874 28.972 61.736 28.972 48.917 0 86.458-43.384 79.431-91.793z" fill="url(#SVGID_00000108289329890199940020000005769616468957403025_)"/><path d="m407.835 371.018c-.97-.103-1.93-.148-2.877-.14-3.429.03-6.23-2.771-6.2-6.199.008-.948-.037-1.908-.14-2.879-1.259-11.873-11.083-21.26-23-21.992-14.349-.882-26.262 10.495-26.262 24.654v.082c.011 3.481-2.72 6.365-6.201 6.335-.947-.008-1.907.038-2.878.141-11.874 1.26-21.261 11.085-21.991 23.003-.88 14.348 10.496 26.259 24.654 26.259h.082c3.482-.012 6.365 2.72 6.335 6.201-.008.946.037 1.905.14 2.875 1.258 11.873 11.082 21.261 22.999 21.994 14.35.883 26.263-10.494 26.263-24.654 0-.027 0-.053 0-.08-.011-3.534 2.802-6.348 6.337-6.337h.08c14.16 0 25.536-11.914 24.654-26.264-.735-11.917-10.122-21.74-21.995-22.999z" fill="url(#SVGID_00000165943138957744739820000000418443997220186279_)"/><g><g><circle cx="342.939" cy="395.579" fill="url(#SVGID_00000145779674344964062910000004585085571965884603_)" r="16.721"/><path d="m326.218 395.579c0 9.235 7.486 16.721 16.721 16.721s16.721-7.486 16.721-16.721c0-2-.352-3.917-.996-5.695h-31.45c-.644 1.778-.996 3.695-.996 5.695z" fill="url(#SVGID_00000057138750431801179330000002518240776418633661_)"/><path d="m331.116 407.403c6.53 6.53 17.117 6.53 23.647 0s6.53-17.117 0-23.647c-1.414-1.414-3.019-2.521-4.732-3.323l-22.238 22.238c.802 1.712 1.908 3.317 3.323 4.732z" fill="url(#SVGID_00000111192058580958035860000007386614459089395878_)"/></g><g><circle cx="405.175" cy="395.579" fill="url(#SVGID_00000038390729564108198710000015627048949161752471_)" r="16.721"/><path d="m388.454 395.579c0 9.235 7.486 16.721 16.721 16.721s16.721-7.486 16.721-16.721c0-2-.352-3.917-.996-5.695h-31.45c-.644 1.778-.996 3.695-.996 5.695z" fill="url(#SVGID_00000029738951007555533950000006695898681673407402_)"/><path d="m393.351 407.403c6.53 6.53 17.117 6.53 23.647 0s6.53-17.117 0-23.647c-1.414-1.414-3.019-2.521-4.732-3.323l-22.238 22.238c.802 1.712 1.909 3.317 3.323 4.732z" fill="url(#SVGID_00000052073858506753103410000005432021304636766337_)"/></g><g><circle cx="374.057" cy="364.461" fill="url(#SVGID_00000100349022126239991780000003562851017900340668_)" r="16.721"/><path d="m357.336 364.461c0 9.235 7.486 16.721 16.721 16.721s16.721-7.486 16.721-16.721c0-2-.352-3.917-.996-5.695h-31.45c-.644 1.778-.996 3.695-.996 5.695z" fill="url(#SVGID_00000168814588161282562470000007542923716842704812_)"/><path d="m362.233 376.285c6.53 6.53 17.117 6.53 23.647 0s6.53-17.117 0-23.647c-1.414-1.414-3.019-2.521-4.732-3.323l-22.238 22.238c.803 1.712 1.909 3.317 3.323 4.732z" fill="url(#SVGID_00000013163547030960615270000015482435930988885433_)"/></g><g><circle cx="374.057" cy="426.697" fill="url(#SVGID_00000151520051096484496720000013990681987758974125_)" r="16.721"/><path d="m357.336 426.697c0 9.235 7.486 16.721 16.721 16.721s16.721-7.486 16.721-16.721c0-2-.352-3.917-.996-5.695h-31.45c-.644 1.777-.996 3.695-.996 5.695z" fill="url(#SVGID_00000096059268677013607820000017810852738856394414_)"/><path d="m362.233 438.521c6.53 6.53 17.117 6.53 23.647 0s6.53-17.117 0-23.647c-1.414-1.414-3.019-2.521-4.732-3.323l-22.238 22.238c.803 1.712 1.909 3.317 3.323 4.732z" fill="url(#SVGID_00000138541395643286638880000006668344357342035862_)"/></g></g><path d="m317.735 421.831h-19.412v36.28c3.012 2.541 5.853 5.386 8.475 8.541 15.249 18.354 37.874 28.972 61.736 28.972 7.068 0 13.896-.911 20.388-2.606z" fill="url(#SVGID_00000168079906573992735520000003250354266217170090_)"/><g><g><circle cx="211.344" cy="440.91" fill="url(#SVGID_00000145776682406658442300000016504361233054463908_)" r="26.982"/><path d="m184.362 440.91c0 14.902 12.08 26.982 26.982 26.982s26.982-12.08 26.982-26.982c0-3.227-.569-6.321-1.608-9.19h-50.748c-1.039 2.869-1.608 5.963-1.608 9.19z" fill="url(#SVGID_00000127734149998917847420000002492057543087223732_)"/><path d="m192.265 459.989c10.537 10.537 27.621 10.537 38.158 0s10.537-27.621 0-38.158c-2.282-2.282-4.872-4.068-7.635-5.361l-35.884 35.884c1.293 2.763 3.079 5.353 5.361 7.635z" fill="url(#SVGID_00000013178115210694119470000007571006484217536700_)"/></g><g><circle cx="298.656" cy="440.91" fill="url(#SVGID_00000011721705395915115540000014879270323400603285_)" r="26.982"/><path d="m271.674 440.91c0 14.902 12.08 26.982 26.982 26.982s26.982-12.08 26.982-26.982c0-3.227-.569-6.321-1.608-9.19h-50.748c-1.039 2.869-1.608 5.963-1.608 9.19z" fill="url(#SVGID_00000029005724872390347740000012576063787876212157_)"/><path d="m279.577 459.989c10.537 10.537 27.621 10.537 38.158 0s10.537-27.621 0-38.158c-2.282-2.282-4.872-4.068-7.635-5.361l-35.884 35.884c1.293 2.763 3.079 5.353 5.361 7.635z" fill="url(#SVGID_00000150099772060147037760000009126399546244323982_)"/></g></g><g><path d="m167.488 378.4h-9.334c-4.214 0-7.63-3.416-7.63-7.63v-9.334c0-6.13-4.969-11.099-11.099-11.099h-12.159c-6.13 0-11.099 4.969-11.099 11.099v9.334c0 4.214-3.416 7.63-7.63 7.63h-9.334c-6.13 0-11.099 4.969-11.099 11.099v12.159c0 6.13 4.969 11.099 11.099 11.099h9.334c4.214 0 7.63 3.416 7.63 7.63v9.334c0 6.13 4.969 11.099 11.099 11.099h12.159c6.13 0 11.099-4.969 11.099-11.099v-9.334c0-4.214 3.416-7.63 7.63-7.63h9.334c6.13 0 11.099-4.969 11.099-11.099v-12.159c.001-6.129-4.969-11.099-11.099-11.099z" fill="url(#SVGID_00000077289602453930366020000013808305480684573851_)"/><g><path d="m130.96 359.828-9.394 14.234c-1.254 1.9.109 4.432 2.385 4.432h18.788c2.277 0 3.639-2.532 2.385-4.432l-9.394-14.234c-1.129-1.712-3.64-1.712-4.77 0z" fill="url(#SVGID_00000098185630108275531290000000905926379101390260_)"/><path d="m130.96 431.33-9.394-14.234c-1.254-1.9.109-4.432 2.385-4.432h18.788c2.277 0 3.639 2.532 2.385 4.432l-9.394 14.234c-1.129 1.712-3.64 1.712-4.77 0z" fill="url(#SVGID_00000043449515792788958430000004520919687808034977_)"/></g><g><path d="m169.097 393.194-14.234-9.394c-1.9-1.254-4.432.109-4.432 2.385v18.788c0 2.277 2.532 3.639 4.432 2.385l14.234-9.394c1.712-1.129 1.712-3.641 0-4.77z" fill="url(#SVGID_00000134228778334759158210000015820209933005141914_)"/><path d="m97.594 393.194 14.234-9.394c1.9-1.254 4.432.109 4.432 2.385v18.788c0 2.277-2.532 3.639-4.432 2.385l-14.234-9.394c-1.711-1.129-1.711-3.641 0-4.77z" fill="url(#SVGID_00000132807666679094194520000009799785399520373926_)"/></g><path d="m88.104 399.08v2.579c0 6.13 4.969 11.099 11.099 11.099h9.334c4.214 0 7.63 3.416 7.63 7.63v9.334c0 6.13 4.969 11.099 11.099 11.099h12.159c6.13 0 11.099-4.969 11.099-11.099v-9.334c0-4.214 3.416-7.63 7.63-7.63h9.334c6.13 0 11.099-4.969 11.099-11.099v-2.579z" fill="url(#SVGID_00000117645565333107150480000014488616734067133580_)"/><path d="m136.846 440.821h2.579c6.13 0 11.099-4.969 11.099-11.099v-9.334c0-4.214 3.416-7.63 7.63-7.63h9.334c6.13 0 11.099-4.969 11.099-11.099v-12.159c0-6.13-4.969-11.099-11.099-11.099h-9.334c-4.214 0-7.63-3.416-7.63-7.63v-9.334c0-6.13-4.969-11.099-11.099-11.099h-2.579z" fill="url(#SVGID_00000062892431451136619830000006839291556618448553_)"/></g></g></g></svg>